<?xml version="1.0" encoding="utf-8"?>
<svg xmlns="http://www.w3.org/2000/svg" xmlns:svg="http://www.w3.org/2000/svg" version="1.1" viewBox="0 0 1400 690">
	<title>The titlepage for the Standard Ebooks edition of Through the Looking-Glass, by Lewis Carroll. Illustrated by John Tenniel</title>
	<g aria-label="THROUGH THE">
		<path d="m 327.33844,68.245613 h 18.33919 V 130 h 17.59064 V 68.245613 h 18.33918 V 52.807016 h -54.26901 z"/>
		<path d="m 410.53289,99.029239 h 24.88889 V 130 h 17.59064 V 52.807016 H 435.42178 V 83.590642 H 410.53289 V 52.807016 H 392.94225 V 130 h 17.59064 z"/>
		<path d="M 469.21418,52.807016 V 130 h 17.59064 V 99.497075 L 510.38377,130 h 22.36257 l -26.5731,-31.906433 c 9.4503,-2.994152 15.81287,-10.760234 15.81287,-22.362574 0,-15.157895 -10.8538,-22.923977 -25.16959,-22.923977 z m 17.59064,34.245615 V 66.842104 h 2.05848 c 6.64328,0 14.59649,0.467836 14.59649,10.105263 0,9.637428 -7.95321,10.105264 -14.59649,10.105264 z"/>
		<path d="m 537.8209,91.356724 c 0,22.549706 16.09357,40.046786 38.92398,40.046786 22.17544,0 38.83041,-17.49708 38.83041,-40.046786 0,-22.549708 -17.40351,-39.953217 -38.83041,-39.953217 -21.23977,0 -38.92398,17.403509 -38.92398,39.953217 z m 18.99415,0 c 0,-11.508772 6.36258,-23.017544 19.92983,-23.017544 13.66082,0 19.83626,11.508772 19.83626,23.017544 0,11.508776 -5.80117,23.017546 -19.83626,23.017546 -14.40936,0 -19.92983,-11.50877 -19.92983,-23.017546 z"/>
		<path d="m 687.65864,52.807016 h -17.59065 v 44.63158 c 0,12.912284 -3.92982,16.654974 -12.53801,16.654974 -8.60819,0 -12.53801,-3.74269 -12.53801,-16.654974 v -44.63158 h -17.59064 v 49.777774 c 0,19.08772 10.47953,28.81872 30.12865,28.81872 19.64912,0 30.12866,-9.731 30.12866,-28.81872 z"/>
		<path d="m 772.76537,86.771929 h -35.64913 v 13.567251 h 17.77778 c 0,9.45029 -8.32748,14.87719 -16.74854,14.87719 -10.8538,0 -19.64912,-10.66666 -19.64912,-23.766078 0,-13.380117 8.79532,-24.140352 19.64912,-24.140352 6.83041,0 12.72515,2.713451 17.21638,9.918129 L 766.87063,64.59649 c -6.73684,-8.140351 -16.18714,-13.192983 -29.75439,-13.192983 -21.7076,0 -37.61403,17.871346 -37.61403,40.046785 0,22.081868 16.8421,39.953218 37.61403,39.953218 15.1579,0 31.4386,-8.32749 35.64913,-27.88304 z"/>
		<path d="m 803.04022,99.029239 h 24.88889 V 130 h 17.59064 V 52.807016 H 827.92911 V 83.590642 H 803.04022 V 52.807016 H 785.44958 V 130 h 17.59064 z"/>
		<path d="m 882.87207,68.245613 h 18.33919 V 130 H 918.8019 V 68.245613 h 18.33918 V 52.807016 h -54.26901 z"/>
		<path d="m 966.06656,99.029239 h 24.88889 V 130 h 17.59065 V 52.807016 H 990.95545 V 83.590642 H 966.06656 V 52.807016 H 948.47591 V 130 h 17.59065 z"/>
		<path d="m 1068.9116,52.807016 h -44.1638 V 130 h 44.1638 v -15.4386 h -26.5731 V 99.029239 h 25.4503 V 83.590642 h -25.4503 V 68.245613 h 26.5731 z"/>
	</g>
	<g aria-label="LOOKING-GLASS">
		<path d="M 271.87792,152.80702 H 254.28727 V 230 h 44.16375 v -15.4386 h -26.5731 z"/>
		<path d="m 308.63961,191.35672 c 0,22.54971 16.09357,40.04679 38.92398,40.04679 22.17544,0 38.83041,-17.49708 38.83041,-40.04679 0,-22.5497 -17.40351,-39.95321 -38.83041,-39.95321 -21.23977,0 -38.92398,17.40351 -38.92398,39.95321 z m 18.99415,0 c 0,-11.50877 6.36258,-23.01754 19.92983,-23.01754 13.66082,0 19.83626,11.50877 19.83626,23.01754 0,11.50878 -5.80117,23.01755 -19.83626,23.01755 -14.40936,0 -19.92983,-11.50877 -19.92983,-23.01755 z"/>
		<path d="m 395.69371,191.35672 c 0,22.54971 16.09357,40.04679 38.92398,40.04679 22.17543,0 38.83041,-17.49708 38.83041,-40.04679 0,-22.5497 -17.40351,-39.95321 -38.83041,-39.95321 -21.23977,0 -38.92398,17.40351 -38.92398,39.95321 z m 18.99415,0 c 0,-11.50877 6.36257,-23.01754 19.92983,-23.01754 13.66081,0 19.83625,11.50877 19.83625,23.01754 0,11.50878 -5.80117,23.01755 -19.83625,23.01755 -14.40936,0 -19.92983,-11.50877 -19.92983,-23.01755 z"/>
		<path d="m 556.4788,230 -35.92983,-40.60819 31.06433,-36.58479 h -21.33333 l -26.47954,31.53216 V 152.80702 H 486.20979 V 230 h 17.59064 V 197.25146 L 532.24488,230 Z"/>
		<path d="M 582.44808,152.80702 H 564.85743 V 230 h 17.59065 z"/>
		<path d="m 616.32234,182.09357 h 0.18714 L 647.19954,230 h 17.59064 v -77.19298 h -17.59064 v 47.90643 H 647.0124 L 616.32234,152.80702 H 598.7317 V 230 h 17.59064 z"/>
		<path d="m 750.83551,186.77193 h -35.64912 v 13.56725 h 17.77778 c 0,9.45029 -8.32749,14.87719 -16.74854,14.87719 -10.8538,0 -19.64912,-10.66666 -19.64912,-23.76608 0,-13.38012 8.79532,-24.14035 19.64912,-24.14035 6.83041,0 12.72515,2.71345 17.21638,9.91813 l 11.50877,-12.63158 c -6.73684,-8.14035 -16.18714,-13.19298 -29.75439,-13.19298 -21.7076,0 -37.61403,17.87134 -37.61403,40.04678 0,22.08187 16.8421,39.95322 37.61403,39.95322 15.1579,0 31.4386,-8.32749 35.64912,-27.88304 z"/>
		<path d="m 763.51973,195.75439 v 14.31579 h 30.12865 v -14.31579 z"/>
		<path d="m 879.62207,186.77193 h -35.64912 v 13.56725 h 17.77778 c 0,9.45029 -8.32749,14.87719 -16.74854,14.87719 -10.8538,0 -19.64912,-10.66666 -19.64912,-23.76608 0,-13.38012 8.79532,-24.14035 19.64912,-24.14035 6.83041,0 12.72515,2.71345 17.21638,9.91813 l 11.50877,-12.63158 c -6.73684,-8.14035 -16.18714,-13.19298 -29.75439,-13.19298 -21.7076,0 -37.61403,17.87134 -37.61403,40.04678 0,22.08187 16.8421,39.95322 37.61403,39.95322 15.1579,0 31.4386,-8.32749 35.64912,-27.88304 z"/>
		<path d="M 909.8969,152.80702 H 892.30626 V 230 H 936.47 v -15.4386 h -26.5731 z"/>
		<path d="M 990.7873,152.80702 H 974.5066 L 943.3487,230 h 18.90059 l 5.7076,-15.4386 h 29.38012 L 1003.0446,230 h 18.9006 z m 0.56141,46.31579 H 973.9452 l 8.60818,-22.45614 h 0.18714 z"/>
		<path d="m 1056.4817,151.40351 c -12.4444,0 -25.1696,9.16959 -25.1696,23.57895 0,8.04678 5.4269,15.25146 14.6901,19.83625 9.1696,4.5848 17.4035,7.11111 17.4035,12.72515 0,7.20468 -7.2983,7.57895 -11.1345,7.57895 -8.6082,0 -18.9006,-8.70176 -18.9006,-8.70176 l -8.7953,14.78363 c 0,0 10.9474,10.19883 29.0058,10.19883 15.0644,0 29.0994,-6.45614 29.0994,-24.88889 0,-10.10526 -9.4502,-17.40351 -18.0584,-21.05263 -8.7954,-3.74269 -16.0936,-6.83041 -16.0936,-11.13451 0,-4.21052 3.1813,-6.92397 9.1696,-6.92397 7.9532,0 15.6257,5.33333 15.6257,5.33333 l 7.1111,-14.03509 c 0,0 -9.9181,-7.29824 -23.9532,-7.29824 z"/>
		<path d="m 1122.5197,151.40351 c -12.4444,0 -25.1695,9.16959 -25.1695,23.57895 0,8.04678 5.4269,15.25146 14.69,19.83625 9.1696,4.5848 17.4035,7.11111 17.4035,12.72515 0,7.20468 -7.2982,7.57895 -11.1345,7.57895 -8.6082,0 -18.9006,-8.70176 -18.9006,-8.70176 l -8.7953,14.78363 c 0,0 10.9474,10.19883 29.0059,10.19883 15.0643,0 29.0994,-6.45614 29.0994,-24.88889 0,-10.10526 -9.4503,-17.40351 -18.0585,-21.05263 -8.7953,-3.74269 -16.0936,-6.83041 -16.0936,-11.13451 0,-4.21052 3.1813,-6.92397 9.1696,-6.92397 7.9532,0 15.6257,5.33333 15.6257,5.33333 l 7.1112,-14.03509 c 0,0 -9.9182,-7.29824 -23.9533,-7.29824 z"/>
	</g>
	<g aria-label="LEWIS CARROLL">
		<path d="M 391.07676,332.10526 H 377.88377 V 390 h 33.12281 v -11.57895 h -19.92982 z"/>
		<path d="M 455.61733,332.10526 H 422.49452 V 390 h 33.12281 V 378.42105 H 435.6875 v -11.64912 h 19.08772 V 355.19298 H 435.6875 v -11.50877 h 19.92983 z"/>
		<path d="m 512.6228,390 h 14.5965 l 16.49122,-57.89474 h -14.59649 l -9.89473,39.7193 h -0.35088 l -10.52632,-39.7193 h -9.96491 l -10.52631,39.7193 H 487.5 l -9.89474,-39.7193 H 462.93859 L 479.42982,390 h 14.66667 l 9.26316,-32.49123 z"/>
		<path d="M 565.06798,332.10526 H 551.875 V 390 h 13.19298 z"/>
		<path d="m 598.49343,331.05263 c -9.33333,0 -18.87719,6.8772 -18.87719,17.68421 0,6.03509 4.07017,11.4386 11.01754,14.8772 6.87719,3.43859 13.05263,5.33333 13.05263,9.54385 0,5.40351 -5.47368,5.68422 -8.35088,5.68422 -6.45614,0 -14.17543,-6.52632 -14.17543,-6.52632 l -6.5965,11.08772 c 0,0 8.21053,7.64912 21.75439,7.64912 11.29825,0 21.82456,-4.8421 21.82456,-18.66666 0,-7.57895 -7.08772,-13.05264 -13.54386,-15.78948 -6.59649,-2.80702 -12.07017,-5.12281 -12.07017,-8.35088 0,-3.15789 2.38596,-5.19298 6.87719,-5.19298 5.96491,0 11.7193,4 11.7193,4 l 5.33333,-10.52631 c 0,0 -7.4386,-5.47369 -17.96491,-5.47369 z"/>
		<path d="m 682.11184,378.07018 c -13.26315,0 -19.08772,-9.26316 -19.08772,-17.05264 0,-7.71929 5.82457,-16.98245 19.08772,-16.98245 6.73685,0 11.36842,3.57895 11.36842,3.57895 l 5.61404,-11.22807 c 0,0 -6.45614,-5.33334 -19.01754,-5.33334 -16.42106,0 -31.36843,13.47369 -31.36843,30.10527 0,16.5614 15.01755,29.89473 31.36843,29.89473 12.5614,0 19.01754,-5.33333 19.01754,-5.33333 l -5.61404,-11.22807 c 0,0 -4.63157,3.57895 -11.36842,3.57895 z"/>
		<path d="M 738.61403,332.10526 H 726.40351 L 703.03509,390 h 14.17544 l 4.2807,-11.57895 h 22.03509 L 747.80702,390 h 14.17544 z m 0.42106,34.73685 H 725.98246 L 732.4386,350 h 0.14035 z"/>
		<path d="M 769.17217,332.10526 V 390 h 13.19298 V 367.12281 L 800.04936,390 h 16.77193 l -19.92983,-23.92982 c 7.08772,-2.24562 11.85965,-8.07018 11.85965,-16.77193 0,-11.36842 -8.14035,-17.19299 -18.87719,-17.19299 z m 13.19298,25.68421 v -15.15789 h 1.54386 c 4.98245,0 10.94737,0.35088 10.94737,7.57895 0,7.22807 -5.96492,7.57894 -10.94737,7.57894 z"/>
		<path d="M 824.47368,332.10526 V 390 h 13.19298 V 367.12281 L 855.35087,390 h 16.77193 l -19.92982,-23.92982 c 7.08772,-2.24562 11.85965,-8.07018 11.85965,-16.77193 0,-11.36842 -8.14035,-17.19299 -18.8772,-17.19299 z m 13.19298,25.68421 v -15.15789 h 1.54386 c 4.98246,0 10.94737,0.35088 10.94737,7.57895 0,7.22807 -5.96491,7.57894 -10.94737,7.57894 z"/>
		<path d="m 877.17873,361.01754 c 0,16.91228 12.07018,30.03509 29.19298,30.03509 16.63158,0 29.12281,-13.12281 29.12281,-30.03509 0,-16.91228 -13.05263,-29.96491 -29.12281,-29.96491 -15.92982,0 -29.19298,13.05263 -29.19298,29.96491 z m 14.24562,0 c 0,-8.63157 4.77193,-17.26315 14.94736,-17.26315 10.24562,0 14.8772,8.63158 14.8772,17.26315 0,8.63158 -4.35088,17.26316 -14.8772,17.26316 -10.80701,0 -14.94736,-8.63158 -14.94736,-17.26316 z"/>
		<path d="M 959.50876,332.10526 H 946.31578 V 390 h 33.12281 v -11.57895 h -19.92983 z"/>
		<path d="M 1004.1195,332.10526 H 990.92656 V 390 h 33.12284 v -11.57895 h -19.9299 z"/>
	</g>
	<g aria-label="illustrated by">
		<path d="m 594.20663,563.16684 c 0,0.42508 0.34007,0.5101 0.59511,0.5101 0.34007,0 1.02019,0.0425 1.91286,0.0425 0.76515,0 1.02019,0.17003 1.02019,0.89267 0,2.42295 -1.91286,9.05419 -1.91286,12.2848 0,1.82784 0.29756,3.52816 1.5728,3.52816 1.57279,0 3.91073,-2.50797 3.91073,-2.50797 0.46759,-0.5101 1.23273,-1.95537 1.23273,-2.46546 0,-0.29756 -0.17003,-0.46759 -0.42508,-0.46759 -0.59511,0 -1.19022,2.21041 -2.63549,2.21041 -0.42508,0 -0.85016,-0.5526 -0.85016,-1.14771 0,-0.5101 0,-0.42508 1.27524,-8.45909 0.34006,-2.1679 1.14771,-3.82571 1.14771,-4.93092 0,-0.29756 -0.29755,-0.46759 -0.59511,-0.46759 -2.42295,0 -3.14559,0.38257 -4.84591,0.38257 h -0.42507 c -0.46759,0 -0.97769,0.0425 -0.97769,0.59511 z m 4.50585,-8.37407 c 0,0.42508 1.14771,2.25293 1.91286,2.25293 0.38257,0 1.87035,-1.40277 1.87035,-2.25293 0,-0.76514 -0.80766,-2.25292 -1.65781,-2.25292 -0.76515,0 -2.1254,1.87035 -2.1254,2.25292 z"/>
		<path d="m 605.93883,576.34431 c 0,3.99575 1.23273,3.99575 2.08289,3.99575 0.80765,0 2.59299,-0.85016 3.6982,-2.12539 1.02019,-1.19023 2.12539,-2.6355 2.12539,-3.06058 0,-0.42508 -0.21254,-0.68013 -0.51009,-0.68013 -1.10521,0 -1.53029,3.01807 -3.86823,3.01807 -0.5526,0 -0.68012,-0.21254 -0.68012,-1.65781 0,-1.44527 0.51009,-4.12327 1.23273,-9.13921 1.36025,-9.13922 0.63762,-7.56642 2.21041,-15.81297 0.12752,-0.80765 0.42508,-1.36025 0.42508,-1.95537 0,-0.42507 -0.21254,-0.68012 -0.89267,-0.68012 -1.1052,0 -2.04038,0.42508 -5.14346,0.63762 -0.5526,0.0425 -0.63762,0.38257 -0.63762,0.59511 0,0.46759 0.38257,0.59511 1.23273,0.59511 0.5101,0 0.59511,-0.0425 1.23273,-0.0425 0.63762,0 1.0627,0.34007 1.0627,0.85016 0,0.5101 -0.63762,4.33581 -1.36025,8.92667 -0.42508,2.72051 -0.63762,5.73858 -1.0202,8.41658 -0.085,0.68013 -1.19022,5.69607 -1.19022,8.11902 z"/>
		<path d="m 617.06396,576.34431 c 0,3.99575 1.23274,3.99575 2.08289,3.99575 0.80766,0 2.59299,-0.85016 3.6982,-2.12539 1.02019,-1.19023 2.1254,-2.6355 2.1254,-3.06058 0,-0.42508 -0.21254,-0.68013 -0.5101,-0.68013 -1.10521,0 -1.53029,3.01807 -3.86822,3.01807 -0.55261,0 -0.68013,-0.21254 -0.68013,-1.65781 0,-1.44527 0.51009,-4.12327 1.23273,-9.13921 1.36025,-9.13922 0.63762,-7.56642 2.21041,-15.81297 0.12753,-0.80765 0.42508,-1.36025 0.42508,-1.95537 0,-0.42507 -0.21254,-0.68012 -0.89266,-0.68012 -1.10521,0 -2.04039,0.42508 -5.14347,0.63762 -0.5526,0.0425 -0.63762,0.38257 -0.63762,0.59511 0,0.46759 0.38257,0.59511 1.23273,0.59511 0.5101,0 0.59511,-0.0425 1.23273,-0.0425 0.63762,0 1.0627,0.34007 1.0627,0.85016 0,0.5101 -0.63762,4.33581 -1.36025,8.92667 -0.42508,2.72051 -0.63762,5.73858 -1.02019,8.41658 -0.085,0.68013 -1.19023,5.69607 -1.19023,8.11902 z"/>
		<path d="m 626.83482,567.50266 c 0,0.29755 0.17003,0.5526 0.42508,0.5526 0.21254,0 0.46759,-0.17003 0.63762,-0.59511 0.59511,-1.36026 1.53029,-2.46546 1.91286,-2.46546 0.5526,0 0.85016,0.42508 0.85016,0.89266 0,2.59299 -1.91286,7.26887 -1.91286,11.85973 0,1.23273 0.29756,2.72051 1.44527,2.72051 3.10308,0 6.24867,-3.86823 8.16153,-6.58874 1.27524,-1.78533 1.48778,-2.72051 1.74283,-2.72051 0.12752,0 0.21254,0.17003 0.21254,0.46759 0,0.38257 -0.76515,3.7407 -0.76515,6.46121 0,1.31775 0.34007,2.29543 1.27524,2.29543 3.99575,0 6.63125,-4.33581 6.63125,-5.356 0,-0.38257 -0.0425,-0.89267 -0.59512,-0.89267 -0.89266,0 -1.06269,3.14559 -3.65568,3.14559 -0.38257,0 -0.93518,-0.085 -0.93518,-1.02019 0,-2.16791 2.59299,-12.45484 2.59299,-13.60255 0,-0.63762 -0.72264,-0.93518 -1.40276,-0.93518 -0.42508,0 -1.10521,0.12753 -1.23273,0.68013 -0.97769,3.7407 -2.16791,7.65144 -4.93093,11.00956 -1.99787,2.38045 -3.48565,4.37833 -4.84591,4.37833 -0.29755,0 -0.76514,-0.42508 -0.76514,-1.14772 0,-3.23061 1.57279,-7.9915 1.57279,-11.7322 0,-0.51009 -0.085,-3.10308 -1.6153,-3.10308 -2.84803,0 -4.8034,3.91073 -4.8034,5.69607 z"/>
		<path d="m 648.95557,577.70457 c 0,2.25292 3.06057,2.80553 4.71838,2.80553 5.44102,0 6.63125,-4.03826 6.63125,-5.56855 0,-2.84803 -1.61531,-4.03826 -2.93305,-5.52603 -1.0202,-1.10521 -3.35813,-2.84804 -3.35813,-4.46334 0,-1.27524 0.63762,-2.25292 2.25292,-2.25292 1.65781,0 1.82784,2.38044 3.35813,2.38044 0.21254,0 1.6153,-0.12752 1.6153,-1.44527 0,-1.65781 -1.65781,-2.21041 -3.95324,-2.21041 -3.31562,0 -5.78108,1.95536 -5.78108,4.8034 0,2.55048 1.6153,3.65568 3.31562,5.39851 1.53028,1.53029 2.93305,2.76302 2.93305,4.76089 0,0.5101 -0.29756,2.72051 -3.40064,2.72051 -2.59299,0 -1.87035,-2.93305 -4.03826,-2.93305 -0.51009,0 -1.36025,0.21254 -1.36025,1.53029 z"/>
		<path d="m 663.74767,563.42189 c 0,1.19023 2.50797,0.25505 2.50797,1.14772 0,1.14771 -1.78533,8.034 -1.78533,11.94474 0,3.31562 1.57279,3.99575 2.72051,3.99575 2.63549,0 6.24867,-2.89055 6.24867,-3.99575 0,-0.59512 -0.34006,-0.59512 -0.46759,-0.59512 -0.68012,0 -1.65781,1.87036 -3.99575,1.87036 -0.17003,0 -1.74282,-0.085 -1.74282,-2.33794 0,-0.68013 0.97768,-6.20617 1.36025,-8.84166 0.25505,-1.74283 0.12753,-2.50797 1.36026,-2.50797 0.93517,0 2.76302,0.21254 3.44314,0.21254 0.76515,0 1.02019,-0.25505 1.02019,-1.23273 0,-0.5101 -0.21254,-0.80765 -1.1052,-0.80765 -0.46759,0 -0.80765,0.0425 -2.46547,0.0425 -1.40276,0 -1.48777,-0.0425 -1.48777,-0.29755 0,-0.63762 0.76514,-2.63549 0.76514,-3.1881 0,-0.38257 -0.21254,-0.51009 -0.42508,-0.51009 -0.68013,0 -0.76514,0.5526 -2.46546,2.33793 -1.87035,1.95537 -3.48566,1.91286 -3.48566,2.76302 z"/>
		<path d="m 675.85515,567.41764 c 0,0.59511 0.34006,0.72264 0.51009,0.72264 0.21254,0 0.34006,-0.12753 0.46759,-0.25505 0.25505,-0.29756 0.59511,-2.84804 2.33794,-2.84804 0.76514,0 1.44527,0.76515 1.44527,2.89055 0,3.18809 -1.82784,9.43677 -1.82784,11.13708 0,1.0202 0.85015,1.10521 1.27523,1.10521 h 0.21254 c 1.53029,0 1.44528,0 2.38045,-7.22635 l 0.21254,-1.40277 c 0.21254,-1.78533 1.27524,-7.35387 3.1881,-7.35387 1.53028,0 1.36025,1.78533 2.29543,1.78533 0.76514,0 0.85016,-1.31775 0.93517,-1.6153 0.12753,-0.46759 0.46759,-1.02019 0.46759,-1.5728 0,-0.59511 -0.46759,-1.31774 -1.57279,-1.31774 -3.14559,0 -5.27099,4.37832 -5.56855,4.37832 -0.085,0 -0.12752,-0.0425 -1.19022,-2.80553 -0.25505,-0.68013 -0.68013,-1.48778 -1.5728,-1.48778 -0.38257,0 -3.99574,1.02019 -3.99574,5.8661 z"/>
		<path d="m 689.4464,575.15409 c 0,2.76302 0.5101,5.48353 4.54836,5.48353 4.03825,0 7.56641,-5.10096 7.77895,-5.10096 0.29756,0 -0.085,4.7609 2.6355,4.7609 1.14771,0 3.06057,-1.95537 4.12327,-3.48566 0.5526,-0.76514 0.76514,-1.40276 0.76514,-1.82784 0,-0.17003 -0.0425,-0.46759 -0.38257,-0.46759 -0.80765,0 -1.70032,2.76302 -3.10308,2.76302 -0.80765,0 -1.44527,-1.40276 -1.44527,-2.50797 0,-1.6153 0.42508,-3.57067 0.76514,-5.44102 0.34007,-1.91286 0.59511,-3.86823 0.97769,-5.44102 0.29755,-1.23273 0.85016,-2.25292 0.85016,-2.93305 0,-0.46759 -0.21254,-0.63762 -0.46759,-0.63762 -0.85016,0 -1.36026,2.08289 -2.21042,2.08289 -1.40276,0 -2.29543,-0.46759 -3.61317,-0.46759 -1.10521,0 -1.95537,0.21254 -3.10309,0.76515 -2.25292,1.0627 -4.20828,3.10308 -5.73857,5.52603 -1.31775,2.1254 -2.38045,4.54836 -2.38045,6.9288 z m 2.97556,-0.25505 c 0,-0.76514 0.085,-1.53028 0.21254,-2.29543 0.38257,-2.21041 1.40276,-4.12327 2.63549,-6.16365 1.27524,-2.16791 3.52817,-3.44315 5.27099,-3.44315 0.89267,0 2.80553,0.29756 2.80553,1.48778 0,0.12753 -1.14772,7.94899 -2.16791,9.98937 -0.38257,0.76515 -2.38044,3.82572 -5.44102,3.82572 -1.78533,0 -3.31562,-1.27524 -3.31562,-3.40064 z"/>
		<path d="m 711.32007,563.42189 c 0,1.19023 2.50797,0.25505 2.50797,1.14772 0,1.14771 -1.78534,8.034 -1.78534,11.94474 0,3.31562 1.5728,3.99575 2.72051,3.99575 2.6355,0 6.24868,-2.89055 6.24868,-3.99575 0,-0.59512 -0.34007,-0.59512 -0.46759,-0.59512 -0.68013,0 -1.65781,1.87036 -3.99575,1.87036 -0.17003,0 -1.74283,-0.085 -1.74283,-2.33794 0,-0.68013 0.97769,-6.20617 1.36026,-8.84166 0.25505,-1.74283 0.12752,-2.50797 1.36025,-2.50797 0.93518,0 2.76302,0.21254 3.44315,0.21254 0.76514,0 1.02019,-0.25505 1.02019,-1.23273 0,-0.5101 -0.21254,-0.80765 -1.10521,-0.80765 -0.46759,0 -0.80765,0.0425 -2.46546,0.0425 -1.40276,0 -1.48778,-0.0425 -1.48778,-0.29755 0,-0.63762 0.76514,-2.63549 0.76514,-3.1881 0,-0.38257 -0.21254,-0.51009 -0.42508,-0.51009 -0.68012,0 -0.76514,0.5526 -2.46546,2.33793 -1.87035,1.95537 -3.48565,1.91286 -3.48565,2.76302 z"/>
		<path d="m 723.56901,573.75133 c 0,3.78321 1.31774,6.75877 6.71626,6.75877 3.69819,0 7.39638,-2.97556 7.39638,-3.95325 0,-0.25504 -0.17003,-0.42508 -0.51009,-0.42508 -0.46759,0 -2.16791,1.82785 -4.59086,1.82785 -4.20829,0 -6.12115,-2.1254 -6.12115,-5.3135 0,-1.10521 0.12752,-1.74283 0.72263,-1.74283 3.99575,-0.0425 6.29118,-0.97768 6.67376,-1.14771 0.80765,-0.34006 4.12327,-2.08289 4.12327,-5.14346 0,-1.87036 -1.70032,-3.14559 -3.69819,-3.14559 -2.38045,0 -4.33582,0.76514 -5.90861,2.25292 -2.93305,2.72051 -4.8034,6.37619 -4.8034,10.03188 z m 3.48565,-4.42083 c 0,-0.5526 0.97768,-3.27311 2.25292,-4.59086 1.10521,-1.14772 2.42296,-1.99788 3.48566,-1.99788 0.72263,0 2.25292,0.38258 2.25292,1.99788 0,2.678 -3.48565,5.44102 -7.60893,5.44102 -0.29755,0 -0.38257,-0.5526 -0.38257,-0.85016 z"/>
		<path d="m 740.0342,574.6865 c 0,3.1881 1.48778,5.65356 5.10096,5.65356 4.20829,0 6.37619,-4.76089 6.75876,-4.76089 0.59512,0 -0.38257,4.76089 2.59299,4.76089 2.76302,0 5.44102,-4.2933 5.44102,-5.18597 0,-0.17003 -0.12752,-0.38257 -0.46759,-0.38257 -0.68012,0 -1.65781,2.63549 -3.52816,2.63549 -0.97768,0 -1.10521,-0.89266 -1.10521,-1.82784 0,-1.27524 0.42508,-3.95324 0.89267,-7.18385 2.38045,-17.38575 2.80553,-18.74601 2.80553,-19.85122 0,-0.38257 -0.29756,-0.72263 -0.68013,-0.72263 -1.14771,0 -0.89267,0.085 -3.27311,0.68013 -1.19023,0.29755 -2.67801,0.12752 -2.67801,0.85015 0,0.29756 0.25505,0.46759 0.68013,0.46759 0.0425,0 1.02019,-0.0425 1.48778,-0.0425 0.63762,0 1.23273,0.42508 1.23273,1.0627 0,0.29756 -1.40276,11.47715 -1.53028,11.47715 -1.19023,0 -2.04039,-0.5526 -3.14559,-0.5526 -5.05845,0 -10.58449,6.33369 -10.58449,12.92242 z m 2.97556,-1.19022 c 0,-4.46334 3.48565,-10.83953 7.39639,-10.83953 1.14771,0 2.84803,0.5526 2.84803,1.70032 0,1.70032 -0.63762,9.18172 -2.33794,11.30712 -1.10521,1.40276 -2.76302,2.21041 -4.2933,2.21041 -2.59299,0 -3.61318,-1.91286 -3.61318,-4.37832 z"/>
		<path d="m 771.23638,576.98193 c 0,2.46547 2.678,3.57067 5.18597,3.57067 6.58873,0 11.60467,-7.60892 11.60467,-13.39001 0,-2.76301 -1.48778,-5.39851 -4.67587,-5.39851 -4.88842,0 -6.88629,3.95324 -7.48141,3.95324 -0.085,0 -0.21254,-0.34006 -0.21254,-0.63762 0,-3.06057 2.72051,-15.72795 2.72051,-16.49309 0,-0.46759 -0.34006,-0.76514 -0.80765,-0.76514 -0.25505,0 -1.02019,0.25505 -2.678,0.46759 -1.95537,0.25504 -3.14559,0.21254 -3.14559,1.06269 0,0.59512 0.34006,0.59512 0.80765,0.59512 0.63762,0 1.10521,-0.085 1.74283,-0.085 0.85016,0 1.0627,0.29756 1.0627,0.5101 0,1.02019 -0.25505,2.50797 -0.63762,4.33581 -0.63762,3.14559 -1.14772,7.26886 -1.91286,11.68969 -0.59511,3.44315 -1.57279,7.86397 -1.57279,10.58448 z m 2.80552,-0.51009 c 0,-0.42508 0.46759,-4.97343 1.70032,-8.33156 1.36025,-3.6982 4.12327,-4.12328 5.14346,-4.12328 2.33794,0 4.16579,1.95537 4.16579,4.33582 0,4.88841 -3.91074,11.00956 -7.73646,11.00956 -2.63549,0 -3.27311,-1.44527 -3.27311,-2.89054 z"/>
		<path d="m 789.67222,585.3135 c 0,1.95536 1.70032,2.50797 3.52816,2.50797 3.99575,0 6.71626,-4.84591 8.71413,-9.90436 2.50797,-6.33369 3.52816,-12.19979 3.52816,-14.11265 0,-1.31774 -0.72263,-2.25292 -1.65781,-2.25292 -1.02019,0 -1.44527,0.80765 -1.44527,1.5728 0,1.14771 1.0627,1.99787 1.0627,3.2306 0,2.84804 -0.93517,7.39639 -1.53029,7.39639 -0.46758,0 -4.50584,-12.07226 -8.62911,-12.07226 -2.59299,0 -3.44315,3.69819 -3.44315,5.48352 0,0.72264 0.17003,0.93518 0.42508,0.93518 1.27524,0 0.38257,-3.1881 2.84803,-3.1881 2.25293,0 6.9288,10.96706 6.9288,13.3475 0,1.61531 -2.80552,7.05633 -5.27098,7.05633 -1.95537,0 -1.99788,-1.40277 -3.6982,-1.40277 -0.72263,0 -1.36025,0.68013 -1.36025,1.40277 z"/>
	</g>
	<g aria-label="JOHN TENNIEL">
		<path d="m 518.08004,601.40351 h -8.79532 v 25.45029 c 0,3.88304 -1.91813,5.4269 -4.44445,5.4269 -2.24561,0 -5.00584,-2.61988 -5.00584,-2.61988 l -2.80702,7.34503 c 0,0 3.50877,3.6959 9.02924,3.6959 7.7193,0 12.02339,-4.02339 12.02339,-11.60233 z"/>
		<path d="m 526.48355,620.67836 c 0,11.27486 8.04678,20.02339 19.46199,20.02339 11.08772,0 19.4152,-8.74853 19.4152,-20.02339 0,-11.27485 -8.70175,-19.97661 -19.4152,-19.97661 -10.61988,0 -19.46199,8.70176 -19.46199,19.97661 z m 9.49708,0 c 0,-5.75438 3.18128,-11.50877 9.96491,-11.50877 6.83041,0 9.91813,5.75439 9.91813,11.50877 0,5.75439 -2.90059,11.50877 -9.91813,11.50877 -7.20468,0 -9.96491,-5.75438 -9.96491,-11.50877 z"/>
		<path d="m 583.03691,624.51462 h 12.44445 V 640 h 8.79532 v -38.59649 h -8.79532 v 15.39181 h -12.44445 v -15.39181 h -8.79532 V 640 h 8.79532 z"/>
		<path d="m 623.67288,616.04678 h 0.0936 L 639.11147,640 h 8.79532 v -38.59649 h -8.79532 v 23.95321 h -0.0936 l -15.34502,-23.95321 h -8.79533 V 640 h 8.79533 z"/>
		<path d="m 671.60417,609.12281 h 9.16959 V 640 h 8.79532 v -30.87719 h 9.16959 v -7.7193 h -27.1345 z"/>
		<path d="M 728.98794,601.40351 H 706.90607 V 640 h 22.08187 v -7.7193 h -13.28655 v -7.76608 h 12.72515 v -7.7193 h -12.72515 v -7.67251 h 13.28655 z"/>
		<path d="m 747.83955,616.04678 h 0.0936 L 763.27814,640 h 8.79533 v -38.59649 h -8.79533 v 23.95321 h -0.0936 l -15.34503,-23.95321 h -8.79532 V 640 h 8.79532 z"/>
		<path d="m 791.49087,616.04678 h 0.0936 L 806.92947,640 h 8.79532 v -38.59649 h -8.79532 v 23.95321 h -0.0936 l -15.34503,-23.95321 h -8.79532 V 640 h 8.79532 z"/>
		<path d="m 835.14217,601.40351 h -8.79532 V 640 h 8.79532 z"/>
		<path d="M 867.86586,601.40351 H 845.78399 V 640 h 22.08187 v -7.7193 h -13.28655 v -7.76608 h 12.72514 v -7.7193 h -12.72514 v -7.67251 h 13.28655 z"/>
		<path d="m 886.71749,601.40351 h -8.79532 V 640 h 22.08187 v -7.7193 h -13.28655 z"/>
	</g>
</svg>
